<svg xmlns="http://www.w3.org/2000/svg" width="1498.292" height="1022.941" viewBox="0 0 1498.292 1022.941"><g transform="translate(-172.854 -281.201)"><circle cx="8.5" cy="8.5" r="8.5" transform="translate(538 574)" fill="#551ca7"/><circle cx="8.5" cy="8.5" r="8.5" transform="translate(184.875 291.201) rotate(45)" fill="#551ca7"/><circle cx="4" cy="4" r="4" transform="translate(1173.875 811.201) rotate(45)" fill="#551ca7"/><circle cx="2.5" cy="2.5" r="2.5" transform="translate(951.875 895.201) rotate(45)" fill="#551ca7"/><circle cx="8.5" cy="8.5" r="8.5" transform="translate(843.875 719.201) rotate(45)" fill="#551ca7"/><circle cx="2.5" cy="2.5" r="2.5" transform="translate(300.875 702.201) rotate(45)" fill="#551ca7"/><circle cx="8.5" cy="8.5" r="8.5" transform="translate(617.875 1185.201) rotate(45)" fill="#551ca7"/><circle cx="3" cy="3" r="3" transform="translate(963.875 326.201) rotate(45)" fill="#551ca7"/><circle cx="8.5" cy="8.5" r="8.5" transform="translate(1485.875 281.201) rotate(45)" fill="#551ca7"/><circle cx="4.5" cy="4.5" r="4.5" transform="translate(659 483)" fill="#551ca7"/><circle cx="4.5" cy="4.5" r="4.5" transform="translate(497 849)" fill="#551ca7"/><circle cx="4.5" cy="4.5" r="4.5" transform="translate(334.782 312.414) rotate(45)" fill="#551ca7"/><circle cx="4.5" cy="4.5" r="4.5" transform="translate(1323.782 832.414) rotate(45)" fill="#551ca7"/><circle cx="4.5" cy="4.5" r="4.5" transform="translate(993.782 740.414) rotate(45)" fill="#551ca7"/><circle cx="4.5" cy="4.5" r="4.5" transform="translate(450.782 723.414) rotate(45)" fill="#551ca7"/><circle cx="4.5" cy="4.5" r="4.5" transform="translate(1664.782 1291.414) rotate(45)" fill="#551ca7"/><circle cx="4.5" cy="4.5" r="4.5" transform="translate(1635.782 302.414) rotate(45)" fill="#551ca7"/></g></svg>